<svg width="66" height="18" viewBox="0 0 66 18" fill="none" xmlns="http://www.w3.org/2000/svg">
<g clip-path="url(#clip0_2904_1026)">
<path d="M64.871 3.52786L65.3726 0H51.8472L49.3957 17.6562H53.3012L54.2536 10.8203H62.7069L63.1916 7.28115H54.7383L55.2624 3.52786H64.871ZM49.3788 5.96243V5.90607C49.6043 4.2154 49.2718 2.8516 48.4208 1.87101C47.412 0.743895 45.7552 0.0788979 43.4953 0.0788979H35.397L32.9455 17.7351H36.851L38.8178 3.59549H42.6894C44.5886 3.59549 45.6368 4.4521 45.4114 6.10895V6.16531C45.2142 7.64183 43.9743 8.6675 42.0751 8.6675H39.1108L43.7151 17.752H48.2743L44.8197 11.4402C47.288 10.6738 49.0745 8.52661 49.3788 5.96243ZM24.5203 0.0281778H5.68065L5.24671 3.13338H9.75517L8.62805 11.4515C8.34627 13.4972 7.30933 14.3707 5.81027 14.3707C4.57608 14.3707 3.67439 13.7113 2.81215 12.6124L0 15.34C1.02004 16.7827 2.67689 17.9944 5.43832 17.9944C7.20225 18.0564 8.9211 17.4703 10.2793 16.3431C11.6036 15.109 12.4321 13.4352 12.6124 11.6374L13.779 3.1841V3.22918H24.0751C27.2649 3.22918 29.0852 5.71446 28.6512 8.86475V8.9211C28.2849 11.9925 25.6362 14.2749 22.5423 14.1847H19.1609L20.536 4.40138H16.4728L15.1428 7.25297H16.5911L15.1428 17.6844H22.0576C27.6425 17.6844 32.0326 13.824 32.7145 8.85348V8.80276C33.4189 3.83782 30.0939 0.0281778 24.5203 0.0281778Z" fill="#838383"/>
</g>
<defs>
<clipPath id="clip0_2904_1026">
<rect width="65.3726" height="18" fill="white"/>
</clipPath>
</defs>
</svg>
